{"title":"Mary J. Blige Ft. Rick Ross - Why [Music Video] 1080p [Sbyky]","uid":9086963,"size":123076453,"categoryP":"video","categoryS":"music_videos","magnet":"?xt=urn:btih:dfb78e195911238f8919ad2ff5c588caf8a89161&amp;dn=Mary+J.+Blige+Ft.+Rick+Ross+-+Why+%5BMusic+Video%5D+1080p+%5BSbyky%5D&amp;tr=udp%3A%2F%2Ftracker.openbittorrent.com%3A80&amp;tr=udp%3A%2F%2Fopen.demonii.com%3A1337&amp;tr=udp%3A%2F%2Ftracker.coppersurfer.tk%3A6969&amp;tr=udp%3A%2F%2Fexodus.desync.com%3A6969","seeders":2,"leechers":0,"uploader":"Sbyky","files":1,"time":1382511111,"description":"[IMG]http://cdn.piczend.com/images/Hw4P46FE/1382444527_why.jpg[/IMG]\n\nGeneral\nComplete name                            : Mary J. Blige Ft. Rick Ross - Why [Music Video] 1080p [Sbyky].mp4\nFormat                                   : MPEG-4\nFormat profile                           : Base Media / Version 2\nCodec ID                                 : mp42\nFile size                                : 117 MiB\nDuration                                 : 4mn 39s\nOverall bit rate mode                    : Variable\nOverall bit rate                         : 3 520 Kbps\nEncoded date                             : UTC 2012-05-08 15:45:03\nTagged date                              : UTC 2012-05-08 15:45:03\n\nVideo\nID                                       : 1\nFormat                                   : AVC\nFormat/Info                              : Advanced Video Codec\nFormat profile                           : &lt;a class=&quot;__cf_email__&quot; href=&quot;/cdn-cgi/l/email-protection&quot; data-cfemail=&quot;1058797778505c243e20&quot;&gt;[email&amp;#160;protected]&lt;/a&gt;&lt;script cf-hash='f9e31' type=&quot;text/javascript&quot;&gt;\n/* &lt;![CDATA[ */!function(){try{var t=&quot;currentScript&quot;in document?document.currentScript:function(){for(var t=document.getElementsByTagName(&quot;script&quot;),e=t.length;e--;)if(t[e].getAttribute(&quot;cf-hash&quot;))return t[e]}();if(t&amp;&amp;t.previousSibling){var e,r,n,i,c=t.previousSibling,a=c.getAttribute(&quot;data-cfemail&quot;);if(a){for(e=&quot;&quot;,r=parseInt(a.substr(0,2),16),n=2;a.length-n;n+=2)i=parseInt(a.substr(n,2),16)^r,e+=String.fromCharCode(i);e=document.createTextNode(e),c.parentNode.replaceChild(e,c)}}}catch(u){}}();/* ]]&gt; */&lt;/script&gt;\nFormat settings, CABAC                   : Yes\nFormat settings, ReFrames                : 1 frame\nCodec ID                                 : avc1\nCodec ID/Info                            : Advanced Video Coding\nDuration                                 : 4mn 39s\nBit rate                                 : 3 371 Kbps\nMaximum bit rate                         : 12.7 Mbps\nWidth                                    : 1 920 pixels\nHeight                                   : 1 080 pixels\nDisplay aspect ratio                     : 16:9\nFrame rate mode                          : Constant\nFrame rate                               : 23.976 fps\nColor space                              : YUV\nChroma subsampling                       : 4:2:0\nBit depth                                : 8 bits\nScan type                                : Progressive\nBits/(Pixel*Frame)                       : 0.068\nStream size                              : 112 MiB (96%)\nTagged date                              : UTC 2012-05-08 15:45:04\n\nAudio\nID                                       : 2\nFormat                                   : AAC\nFormat/Info                              : Advanced Audio Codec\nFormat profile                           : LC\nCodec ID                                 : 40\nDuration                                 : 4mn 39s\nBit rate mode                            : Variable\nBit rate                                 : 144 Kbps\nMaximum bit rate                         : 178 Kbps\nChannel(s)                               : 2 channels\nChannel positions                        : Front: L R\nSampling rate                            : 44.1 KHz\nCompression mode                         : Lossy\nStream size                              : 4.87 MiB (4%)\nTitle                                    : IsoMedia File Produced by Google, 5-11-2011\nEncoded date                             : UTC 2012-05-08 15:45:04\nTagged date                              : UTC 2012-05-08 15:45:04\n\nShared By Sbyky\n[IMG]http://cdn.piczend.com/images/X3Ag13N3/1379453786_saythanks.gif[/IMG]\n[IMG]http://cdn.piczend.com/images/gGqhX2S8/1379453780_keepseeding.gif[/IMG]","torrent":{"xt":"urn:btih:dfb78e195911238f8919ad2ff5c588caf8a89161","amp;dn":"Mary+J.+Blige+Ft.+Rick+Ross+-+Why+%5BMusic+Video%5D+1080p+%5BSbyky%5D","amp;tr":["udp%3A%2F%2Ftracker.openbittorrent.com%3A80","udp%3A%2F%2Fopen.demonii.com%3A1337","udp%3A%2F%2Ftracker.coppersurfer.tk%3A6969","udp%3A%2F%2Fexodus.desync.com%3A6969"],"infoHash":"dfb78e195911238f8919ad2ff5c588caf8a89161","infoHashBuffer":{"type":"Buffer","data":[223,183,142,25,89,17,35,143,137,25,173,47,245,197,136,202,248,168,145,97]},"announce":[],"urlList":[]}}